<?xml version="1.0" standalone="no"?>
<!DOCTYPE svg PUBLIC "-//W3C//DTD SVG 20010904//EN"
"http://www.w3.org/TR/2001/REC-SVG-20010904/DTD/svg10.dtd">
<svg viewBox="-4.75 -15.6 9.55 15.6"
xmlns="http://www.w3.org/2000/svg" xmlns:xlink="http://www.w3.org/1999/xlink">
<desc>Created by Action Script Viewer - https://www.buraks.com/asv</desc>
<g>
<path fill="none" stroke="#000000" stroke-width="0.01" stroke-opacity="1"
d="M2,-0.25 L0.05,-0.25 L-2.1,0 Q-2.95,-0.1,-3.5,-1.1 L-3.9,-1.9 L-3.8,-2.5 Q-4.15,-2.55,-4.3,-2.75 L-4.65,-4 
Q-4.9,-5.1,-4.45,-6.05 Q-4.05,-7,-3.5,-7.1 L-2.55,-7.3 L-1.15,-7.55 Q-1.35,-8.5,-2.3,-10.85 Q-3.3,-13.15,-4,-13.8 
L-1.05,-15.6 L-0.65,-15.2 Q0.7,-13.85,2.05,-10.45 Q3.45,-7,4,-6.25 Q4.5,-5.5,4.75,-3.55 Q5,-1.35,3.75,-0.65 
Q3.05,-0.3,2,-0.25 "/>
</g>
</svg>

