<?xml version="1.0" standalone="no"?>
<!DOCTYPE svg PUBLIC "-//W3C//DTD SVG 20010904//EN"
"http://www.w3.org/TR/2001/REC-SVG-20010904/DTD/svg10.dtd">
<svg viewBox="-9.65 -13.95 19.35 13.95"
xmlns="http://www.w3.org/2000/svg" xmlns:xlink="http://www.w3.org/1999/xlink">
<desc>Created by Action Script Viewer - https://www.buraks.com/asv</desc>
<g>
<path fill="none" stroke="#000000" stroke-width="0.01" stroke-opacity="1"
d="M9.7,-12.45 L5.35,-7.75 L3.1,-5.25 L1.75,-3.4 L0.45,-2 Q-0.3,-1.4,-0.85,-1.7 Q-0.6,-1.25,-0.75,-0.95 L-1.2,-0.35 
Q-1.45,0,-1.85,0 Q-2.65,0,-4.15,-2.45 Q-5.3,-4.35,-5.85,-5.8 L-7.85,-8.75 Q-9.65,-11.4,-9.65,-12.2 L-9.5,-12.9 
Q-9.3,-13.3,-8.9,-13.3 L-8.5,-13.2 L-7.85,-13.5 L-6.95,-13.65 L-5.8,-13.15 L-5.1,-12.4 L-4.7,-11.5 L-4.15,-10.45 
Q-3.3,-9.5,-1.95,-8.85 Q-0.75,-8.35,-0.3,-8.35 Q1.1,-8.35,4.8,-11.1 L8.85,-13.95 L9.7,-12.45 "/>
</g>
</svg>

