<?xml version="1.0" standalone="no"?>
<!DOCTYPE svg PUBLIC "-//W3C//DTD SVG 20010904//EN"
"http://www.w3.org/TR/2001/REC-SVG-20010904/DTD/svg10.dtd">
<svg viewBox="-18.4 -29.9 30.45 28.5"
xmlns="http://www.w3.org/2000/svg" xmlns:xlink="http://www.w3.org/1999/xlink">
<desc>Created by Action Script Viewer - https://www.buraks.com/asv</desc>
<g>
<path fill="none" stroke="#000000" stroke-width="0.01" stroke-opacity="1"
d="M-11.6,-23.55 L-12.35,-24.45 L-11.35,-23.6 Q-8.2,-30.05,-0.75,-29.9 Q3.35,-29.85,6.8,-27.65 Q12.3,-24.2,12.05,-17.55 
Q11.85,-12.85,9.8,-8.85 L8.45,-6.95 L9.2,-6.35 Q6.75,-5.25,4.4,-3.05 Q4.05,-4.2,4.25,-5 Q3.75,-4.65,3.75,-3.1 
L2.8,-4.85 L3.25,-2.15 L-0.05,-1.4 L-0.65,-3.15 L-2.05,-2.65 L-5.75,-2.2 Q-8.1,-2.3,-9.15,-2.75 L-9.6,-3 L-10.1,-3.7 
Q-8.15,-3.5,-5.45,-4.6 Q-1.7,-6.15,-1.7,-9.2 Q-1.7,-11.2,-3,-11.2 Q-3.6,-11.2,-6.5,-9.95 Q-9.4,-8.7,-10.8,-8.7 
L-11.45,-8.8 L-11.7,-8.8 Q-11.55,-9.45,-12,-9.9 Q-12.85,-10.55,-12.7,-10.65 L-12.35,-11.45 L-12.2,-11.7 L-12.55,-13.05 
L-12.85,-14.7 L-13.65,-13.65 L-14.2,-12.25 L-14.5,-15 L-14.4,-16.45 L-13.9,-18.45 L-15.4,-18.8 L-16.25,-19.25 
Q-17.6,-20.15,-18.4,-21.75 L-16.65,-21.4 L-15.4,-21.25 L-14.3,-21.25 L-12.65,-21.75 Q-11.8,-22.1,-11.3,-22.6 
L-12.7,-23.1 Q-13.3,-23.35,-14.1,-24.15 L-13.9,-24.1 L-12.95,-23.9 L-12.1,-23.85 Q-11.9,-23.9,-11.6,-23.55 M0,0 
M-9.95,-6.15 L-10.4,-6.15 L-11.3,-8.9 L-10.9,-9.05 L-9.95,-6.15 M0,0 M-10.4,-6.65 Q-5,-7.1,-1.55,-10.2 L-1.4,-9.95 
Q-4.7,-6.55,-10.15,-6.15 L-10.4,-6.65 "/>
</g>
</svg>

