<?xml version="1.0" standalone="no"?>
<!DOCTYPE svg PUBLIC "-//W3C//DTD SVG 20010904//EN"
"http://www.w3.org/TR/2001/REC-SVG-20010904/DTD/svg10.dtd">
<svg viewBox="-9.75 -17.3 19.5 17.3"
xmlns="http://www.w3.org/2000/svg" xmlns:xlink="http://www.w3.org/1999/xlink">
<desc>Created by Action Script Viewer - https://www.buraks.com/asv</desc>
<g>
<path fill="none" stroke="#000000" stroke-width="0.01" stroke-opacity="1"
d="M9.05,-17.15 L7.4,-17.3 Q3.85,-17.3,1.6,-16.2 L0.35,-15.55 L-1,-15.4 L-3.05,-14.15 L-5.85,-12.6 L-6.95,-12.15 
L-7.05,-12.1 L-7.5,-12.2 L-7.9,-12.3 Q-8.75,-12.3,-9.3,-11.3 Q-9.75,-10.35,-9.75,-9.1 L-9.7,-4.2 
Q-9.7,-2.85,-7.45,-1.35 Q-5.45,0,-4.45,0 Q-3.5,0,-2.8,-0.8 L-1.5,-2.3 L0.8,-3.7 L3.35,-5.05 L6.45,-6.75 
Q7.85,-7.45,8.45,-8 Q9.2,-8.65,9.45,-9.65 Q9.75,-10.65,9.75,-12.5 L9.75,-14.4 L9.35,-16.3 L9.05,-17.15 "/>
</g>
</svg>

