<?xml version="1.0" standalone="no"?>
<!DOCTYPE svg PUBLIC "-//W3C//DTD SVG 20010904//EN"
"http://www.w3.org/TR/2001/REC-SVG-20010904/DTD/svg10.dtd">
<svg viewBox="-10.25 -24.65 20.55 28.3"
xmlns="http://www.w3.org/2000/svg" xmlns:xlink="http://www.w3.org/1999/xlink">
<desc>Created by Action Script Viewer - https://www.buraks.com/asv</desc>
<g>
<path fill="none" stroke="#000000" stroke-width="0.01" stroke-opacity="1"
d="M2.8,-15.25 L4.95,-11.85 L5.9,-10.35 L5.85,-10.45 L6.65,-10.35 L9.35,-10.15 Q10.3,-9.9,10.3,-9.15 L9.85,-7.6 
L9.55,-6.6 L8.6,-6.35 Q8.95,-5.3,8.95,-4.15 Q8.95,-0.9,6.25,1.35 Q3.65,3.65,-0.1,3.65 Q-3.85,3.65,-6.55,1.35 
Q-8.65,-0.5,-9.05,-3 Q-10.25,-3.55,-10.25,-3.9 L-9.95,-5.5 L-9.5,-7.2 Q-9.35,-7.75,-9.35,-9.25 L-9.35,-11.65 
Q-9.15,-15.9,-8.65,-18.15 Q-7.85,-21.65,-5.95,-23.35 L-0.35,-24.65 L0.2,-24.65 Q0.1,-20.2,2.8,-15.25 "/>
</g>
</svg>

