<?xml version="1.0" standalone="no"?>
<!DOCTYPE svg PUBLIC "-//W3C//DTD SVG 20010904//EN"
"http://www.w3.org/TR/2001/REC-SVG-20010904/DTD/svg10.dtd">
<svg viewBox="-8.65 -19.95 17.3 19.95"
xmlns="http://www.w3.org/2000/svg" xmlns:xlink="http://www.w3.org/1999/xlink">
<desc>Created by Action Script Viewer - https://www.buraks.com/asv</desc>
<g>
<path fill="none" stroke="#000000" stroke-width="0.01" stroke-opacity="1"
d="M8,-5.6 Q8.65,-7.15,8.65,-8.4 Q8.65,-9.6,6.5,-11.7 Q4.35,-13.85,4.3,-14.6 L3.9,-16.4 Q3.55,-17.2,2.8,-17.85 
L1.05,-19.1 Q-0.25,-19.95,-0.8,-19.95 Q-1.5,-19.95,-3.25,-18.7 Q-5.15,-17.35,-6.5,-15.7 L-8,-13.55 L-8.65,-12.55 
Q-6.1,-8.8,-3.7,-6 L-0.9,-3 L0.65,-1.05 Q1.65,0.1,2.6,0 Q3.55,-0.1,4.7,-1.35 L6.55,-3.35 Q7.3,-4.05,8,-5.6 "/>
</g>
</svg>

