<?xml version="1.0" standalone="no"?>
<!DOCTYPE svg PUBLIC "-//W3C//DTD SVG 20010904//EN"
"http://www.w3.org/TR/2001/REC-SVG-20010904/DTD/svg10.dtd">
<svg viewBox="-8.45 -18 16.95 18"
xmlns="http://www.w3.org/2000/svg" xmlns:xlink="http://www.w3.org/1999/xlink">
<desc>Created by Action Script Viewer - https://www.buraks.com/asv</desc>
<g>
<path fill="none" stroke="#000000" stroke-width="0.01" stroke-opacity="1"
d="M5.75,-13.25 Q6.6,-12.8,6.55,-12.2 Q6.85,-12.6,7.15,-12.55 L7.9,-12.35 L8.45,-11.85 Q8.75,-11.1,7.05,-8.85 L4.6,-6 
L2.55,-3.1 Q0.8,-0.45,0.05,-0.15 L-0.65,0 L-1.25,-0.35 L-1.35,-0.8 L-1.85,-1.3 L-2.3,-2.1 Q-2.5,-2.55,-2.3,-3.3 
L-1.85,-4.25 L-1.15,-4.95 L-0.4,-5.85 Q0.15,-7,0.3,-8.5 L0.15,-10.25 Q-0.35,-11.5,-4.3,-13.9 Q-7.35,-15.75,-8.45,-16.65 
L-7.35,-18 L-1.35,-15.65 L1.75,-14.5 L4,-13.95 L5.75,-13.25 "/>
</g>
</svg>

